<?xml version="1.0" encoding="iso-8859-1"?>
<!-- Generator: Adobe Illustrator 19.0.0, SVG Export Plug-In . SVG Version: 6.00 Build 0)  -->
<svg version="1.1" id="Layer_1" xmlns="http://www.w3.org/2000/svg" xmlns:xlink="http://www.w3.org/1999/xlink" x="0px" y="0px"
	 viewBox="0 0 363.28 363.28" style="enable-background:new 0 0 363.28 363.28;" xml:space="preserve">
<g>
	<g>
		<path style="fill:#FFA400;" d="M134.84,230.229c-0.002,19.831,7.72,38.476,21.745,52.501
			c28.946,28.946,76.044,28.946,104.991,0.001l9.623-9.625c28.947-28.946,28.947-76.044,0-104.99
			c-14.023-14.024-32.67-21.747-52.502-21.744l-1.426,0.001c-15.664-0.361-30.337-6.63-41.455-17.749
			c-11.126-11.125-17.397-25.812-17.749-41.49l0.001-1.391c0.003-19.831-7.72-38.477-21.744-52.501
			c-28.945-28.946-76.044-28.946-104.99,0l-9.625,9.624C-7.236,71.812-7.236,118.91,21.71,147.856
			c14.025,14.025,32.67,21.747,52.502,21.745l1.437-0.002c15.661,0.363,30.329,6.634,41.444,17.749
			c11.13,11.13,17.401,25.822,17.749,41.506L134.84,230.229z M175.834,263.481c-11.84-11.839-17.76-27.357-17.758-42.875
			l0.017,0.006c0.001-19.006-7.251-38.013-21.751-52.513c-14.5-14.5-33.505-21.752-52.51-21.752l0.003,0.017
			c-15.519,0.002-31.036-5.918-42.875-17.757c-21.496-21.497-23.473-55.115-5.938-78.845c23.73-17.535,60.556-18.766,82.052,2.729
			c11.839,11.839,17.759,27.358,17.757,42.876l-0.017-0.004c0.001,19.005,7.251,38.01,21.752,52.511
			c14.501,14.501,33.509,21.752,52.513,21.751l-0.006-0.017c15.518-0.001,31.035,5.918,42.875,17.758
			c21.496,21.496,20.264,58.322,2.731,82.052C230.949,286.954,197.33,284.976,175.834,263.481z"/>
		<path style="fill:#F6C65B;" d="M144.465,220.604c-0.003,19.831,7.72,38.477,21.744,52.501
			c28.947,28.946,76.045,28.947,104.99,0.001c28.947-28.946,28.947-76.044,0-104.99c-14.023-14.024-32.67-21.747-52.502-21.744
			l-1.426,0.001c-15.664-0.361-30.337-6.63-41.455-17.749c-11.126-11.125-17.397-25.812-17.749-41.49l0.001-1.391
			c0.003-19.831-7.72-38.477-21.744-52.501c-28.945-28.946-76.044-28.946-104.99,0s-28.945,76.043,0.001,104.989
			c14.024,14.024,32.67,21.747,52.501,21.745l1.438-0.001c15.661,0.363,30.329,6.633,41.444,17.749
			c11.129,11.128,17.401,25.821,17.748,41.505L144.465,220.604z M175.834,263.481c-11.84-11.839-17.76-27.357-17.758-42.875
			l0.017,0.006c0.001-19.006-7.25-38.013-21.751-52.514c-14.501-14.5-33.506-21.751-52.511-21.751l0.003,0.017
			c-15.519,0.002-31.036-5.918-42.875-17.757c-23.677-23.677-23.677-62.064-0.001-85.741c23.677-23.677,62.063-23.676,85.741,0.001
			c11.839,11.839,17.758,27.357,17.757,42.875l-0.017-0.004c0.001,19.006,7.251,38.011,21.752,52.512
			c14.501,14.501,33.508,21.751,52.516,21.75l-0.008-0.017c15.52-0.002,31.035,5.919,42.875,17.758
			c23.676,23.677,23.678,62.063,0,85.739C237.898,287.158,199.512,287.158,175.834,263.481z"/>
	</g>
	<g>
		<path style="fill:#009BDE;" d="M222.94,225.008c-14.025,14.021-21.749,32.666-21.749,52.5c0,40.935,33.304,74.239,74.238,74.239
			h13.611c40.936,0,74.238-33.304,74.239-74.24c-0.001-19.833-7.725-38.478-21.749-52.499L340.521,224
			c-10.82-11.332-16.763-26.139-16.763-41.862c0-15.734,5.951-30.554,16.788-41.889l0.983-0.982
			c14.024-14.022,21.748-32.667,21.748-52.5c0-40.936-33.302-74.239-74.238-74.239l-13.611-0.001
			c-40.935,0.001-74.238,33.304-74.238,74.24c0,19.834,7.724,38.479,21.748,52.5l1.017,1.014
			c10.817,11.331,16.755,26.137,16.755,41.855c0,15.74-5.955,30.564-16.798,41.9L222.94,225.008z M228.415,277.508
			c0-16.745,6.786-31.904,17.761-42.875l0.007,0.016c13.439-13.439,21.752-32.005,21.751-52.513
			c0-20.506-8.311-39.073-21.749-52.511l-0.009,0.014c-10.975-10.972-17.761-26.13-17.761-42.873
			c0-30.401,22.373-55.57,51.552-59.949c29.179,4.381,56.09,29.549,56.09,59.949c0,16.743-6.787,31.902-17.761,42.873l-0.009-0.015
			c-13.439,13.439-21.751,32.006-21.751,52.512c0,20.508,8.313,39.075,21.753,52.513l0.007-0.016
			c10.975,10.971,17.761,26.13,17.761,42.874c0,30.399-26.911,55.568-56.09,59.95C250.789,333.077,228.415,307.906,228.415,277.508z
			"/>
		<path style="fill:#77B8E8;" d="M236.552,225.008c-14.024,14.021-21.749,32.665-21.749,52.499c0,40.937,33.303,74.24,74.238,74.24
			c40.936,0,74.238-33.304,74.239-74.24c-0.001-19.833-7.725-38.478-21.749-52.499L340.522,224
			c-10.82-11.332-16.763-26.139-16.763-41.862c0-15.734,5.951-30.554,16.788-41.889l0.983-0.982
			c14.024-14.022,21.748-32.667,21.748-52.5c0-40.936-33.302-74.239-74.238-74.239c-40.936-0.001-74.238,33.303-74.238,74.239
			c0,19.833,7.725,38.478,21.749,52.5l1.018,1.016c10.816,11.331,16.754,26.136,16.754,41.855c0,15.739-5.955,30.563-16.799,41.898
			L236.552,225.008z M228.415,277.508c0-16.745,6.786-31.904,17.761-42.875l0.007,0.016c13.439-13.439,21.752-32.005,21.752-52.513
			c0.001-20.506-8.312-39.073-21.75-52.511l-0.009,0.014c-10.975-10.972-17.761-26.13-17.761-42.873
			c0-33.484,27.144-60.629,60.626-60.629c33.484,0,60.627,27.144,60.627,60.629c0,16.744-6.786,31.901-17.761,42.874l-0.01-0.015
			c-13.438,13.439-21.75,32.003-21.751,52.512c0.001,20.507,8.313,39.074,21.754,52.512l0.007-0.016
			c10.975,10.972,17.761,26.13,17.76,42.873c0,33.485-27.142,60.628-60.626,60.628C255.559,338.135,228.414,310.991,228.415,277.508
			z"/>
	</g>
</g>
<g>
</g>
<g>
</g>
<g>
</g>
<g>
</g>
<g>
</g>
<g>
</g>
<g>
</g>
<g>
</g>
<g>
</g>
<g>
</g>
<g>
</g>
<g>
</g>
<g>
</g>
<g>
</g>
<g>
</g>
</svg>
